<?xml version="1.0" encoding="UTF-8" standalone="no"?>
<!-- Created with Inkscape (http://www.inkscape.org/) -->

<svg
   width="155.99615mm"
   height="145.28723mm"
   viewBox="0 0 155.99615 145.28723"
   version="1.1"
   id="svg7149"
   inkscape:version="1.1 (c68e22c387, 2021-05-23)"
   sodipodi:docname="schedule3.svg"
   xmlns:inkscape="http://www.inkscape.org/namespaces/inkscape"
   xmlns:sodipodi="http://sodipodi.sourceforge.net/DTD/sodipodi-0.dtd"
   xmlns="http://www.w3.org/2000/svg"
   xmlns:svg="http://www.w3.org/2000/svg">
  <sodipodi:namedview
     id="namedview7151"
     pagecolor="#ffffff"
     bordercolor="#666666"
     borderopacity="1.0"
     inkscape:pageshadow="2"
     inkscape:pageopacity="0.0"
     inkscape:pagecheckerboard="0"
     inkscape:document-units="mm"
     showgrid="false"
     fit-margin-top="0"
     fit-margin-left="0"
     fit-margin-right="0"
     fit-margin-bottom="0"
     inkscape:zoom="0.74118967"
     inkscape:cx="302.89143"
     inkscape:cy="377.09646"
     inkscape:window-width="1920"
     inkscape:window-height="1017"
     inkscape:window-x="-8"
     inkscape:window-y="-8"
     inkscape:window-maximized="1"
     inkscape:current-layer="layer1" />
  <defs
     id="defs7146">
    <rect
       x="109.28377"
       y="187.53634"
       width="348.08904"
       height="299.51847"
       id="rect14054" />
  </defs>
  <g
     inkscape:label="Layer 1"
     inkscape:groupmode="layer"
     id="layer1"
     transform="translate(-24.988138,-48.905048)">
    <path
       id="path7951"
       style="fill:#1a1a1a;stroke-width:0.999999"
       d="M 94.443359,221.26562 V 733.95508 H 684.03516 V 221.26562 Z m 53.292971,16.86524 a 22.261509,22.261509 0 0 1 3.86523,0.33789 22.261509,22.261509 0 0 1 3.74805,1.00391 22.261509,22.261509 0 0 1 3.51758,1.64062 22.261509,22.261509 0 0 1 3.17773,2.22461 22.261509,22.261509 0 0 1 2.74414,2.74414 22.261509,22.261509 0 0 1 2.22461,3.17969 22.261509,22.261509 0 0 1 1.64063,3.51562 22.261509,22.261509 0 0 1 1.0039,3.74805 22.261509,22.261509 0 0 1 0.33789,3.86719 22.261509,22.261509 0 0 1 -2.98242,11.13086 22.261509,22.261509 0 0 1 -8.14648,8.14844 22.261509,22.261509 0 0 1 -11.13086,2.98242 22.261509,22.261509 0 0 1 -11.13086,-2.98242 22.261509,22.261509 0 0 1 -8.14844,-8.14844 22.261509,22.261509 0 0 1 -2.98242,-11.13086 22.261509,22.261509 0 0 1 2.98242,-11.13086 22.261509,22.261509 0 0 1 8.14844,-8.14844 22.261509,22.261509 0 0 1 11.13086,-2.98242 z m 118.72656,0 a 22.261509,22.261509 0 0 1 3.86719,0.33789 22.261509,22.261509 0 0 1 3.74804,1.00391 22.261509,22.261509 0 0 1 3.51563,1.64062 22.261509,22.261509 0 0 1 3.17969,2.22461 22.261509,22.261509 0 0 1 2.74414,2.74414 22.261509,22.261509 0 0 1 2.22461,3.17969 22.261509,22.261509 0 0 1 1.64062,3.51562 22.261509,22.261509 0 0 1 1.00391,3.74805 22.261509,22.261509 0 0 1 0.33789,3.86719 22.261509,22.261509 0 0 1 -2.98242,11.13086 22.261509,22.261509 0 0 1 -8.14844,8.14844 22.261509,22.261509 0 0 1 -11.13086,2.98242 22.261509,22.261509 0 0 1 -11.13086,-2.98242 22.261509,22.261509 0 0 1 -8.14844,-8.14844 22.261509,22.261509 0 0 1 -2.98242,-11.13086 22.261509,22.261509 0 0 1 2.98242,-11.13086 22.261509,22.261509 0 0 1 8.14844,-8.14844 22.261509,22.261509 0 0 1 11.13086,-2.98242 z m 118.72852,0 a 22.261509,22.261509 0 0 1 3.86523,0.33789 22.261509,22.261509 0 0 1 3.74805,1.00391 22.261509,22.261509 0 0 1 3.51758,1.64062 22.261509,22.261509 0 0 1 3.17773,2.22461 22.261509,22.261509 0 0 1 2.74414,2.74414 22.261509,22.261509 0 0 1 2.22656,3.17969 22.261509,22.261509 0 0 1 1.64063,3.51562 22.261509,22.261509 0 0 1 1.0039,3.74805 22.261509,22.261509 0 0 1 0.33789,3.86719 22.261509,22.261509 0 0 1 -2.98242,11.13086 22.261509,22.261509 0 0 1 -8.14843,8.14844 22.261509,22.261509 0 0 1 -11.13086,2.98242 22.261509,22.261509 0 0 1 -11.13086,-2.98242 22.261509,22.261509 0 0 1 -8.14844,-8.14844 22.261509,22.261509 0 0 1 -2.98242,-11.13086 22.261509,22.261509 0 0 1 2.98242,-11.13086 22.261509,22.261509 0 0 1 8.14844,-8.14844 22.261509,22.261509 0 0 1 11.13086,-2.98242 z m 118.72851,0 a 22.261509,22.261509 0 0 1 3.86524,0.33789 22.261509,22.261509 0 0 1 3.74804,1.00391 22.261509,22.261509 0 0 1 3.51758,1.64062 22.261509,22.261509 0 0 1 3.17774,2.22461 22.261509,22.261509 0 0 1 2.74414,2.74414 22.261509,22.261509 0 0 1 2.22656,3.17969 22.261509,22.261509 0 0 1 1.63867,3.51562 22.261509,22.261509 0 0 1 1.00586,3.74805 22.261509,22.261509 0 0 1 0.33789,3.86719 22.261509,22.261509 0 0 1 -2.98242,11.13086 22.261509,22.261509 0 0 1 -8.14844,8.14844 22.261509,22.261509 0 0 1 -11.13086,2.98242 22.261509,22.261509 0 0 1 -11.13086,-2.98242 22.261509,22.261509 0 0 1 -8.14844,-8.14844 22.261509,22.261509 0 0 1 -2.98242,-11.13086 22.261509,22.261509 0 0 1 2.98242,-11.13086 22.261509,22.261509 0 0 1 8.14844,-8.14844 22.261509,22.261509 0 0 1 11.13086,-2.98242 z m 118.72852,0 a 22.261509,22.261509 0 0 1 3.86523,0.33789 22.261509,22.261509 0 0 1 3.74805,1.00391 22.261509,22.261509 0 0 1 3.51758,1.64062 22.261509,22.261509 0 0 1 3.17773,2.22461 22.261509,22.261509 0 0 1 2.74414,2.74414 22.261509,22.261509 0 0 1 2.22461,3.17969 22.261509,22.261509 0 0 1 1.64063,3.51562 22.261509,22.261509 0 0 1 1.0039,3.74805 22.261509,22.261509 0 0 1 0.33789,3.86719 22.261509,22.261509 0 0 1 -2.98242,11.13086 22.261509,22.261509 0 0 1 -8.14648,8.14844 22.261509,22.261509 0 0 1 -11.13086,2.98242 22.261509,22.261509 0 0 1 -11.13086,-2.98242 22.261509,22.261509 0 0 1 -8.14844,-8.14844 22.261509,22.261509 0 0 1 -2.98242,-11.13086 22.261509,22.261509 0 0 1 2.98242,-11.13086 22.261509,22.261509 0 0 1 8.14844,-8.14844 22.261509,22.261509 0 0 1 11.13086,-2.98242 z m -486.20508,88.01172 h 501.7207 v 390.27344 h -501.7207 z"
       transform="scale(0.26458333)" />
    <rect
       style="fill:#808080;stroke-width:0.246453"
       id="rect8056"
       width="3.9266827"
       height="21.061298"
       x="37.125"
       y="49.618992" />
    <rect
       style="fill:#808080;stroke-width:0.246453"
       id="rect8138"
       width="3.9266827"
       height="21.061298"
       x="68.181488"
       y="49.618992" />
    <rect
       style="fill:#808080;stroke-width:0.246453"
       id="rect8140"
       width="3.9266827"
       height="21.061298"
       x="99.95192"
       y="49.618992" />
    <rect
       style="fill:#808080;stroke-width:0.246453"
       id="rect8142"
       width="3.9266827"
       height="21.061298"
       x="131.36539"
       y="48.905048" />
    <rect
       style="fill:#808080;stroke-width:0.246453"
       id="rect8144"
       width="3.9266827"
       height="21.061298"
       x="162.42188"
       y="49.26202" />
    <text
       xml:space="preserve"
       transform="matrix(0.26458333,0,0,0.26458333,24.988138,48.905048)"
       id="text14052"
       style="line-height:1.25;font-family:Manrope;font-size:40px;-inkscape-font-specification:Manrope;white-space:pre;shape-inside:url(#rect14054)" />
    <text
       xml:space="preserve"
       style="font-size:76.2px;line-height:1.25;font-family:Manrope;-inkscape-font-specification:Manrope;stroke-width:0.264583"
       x="65.325882"
       y="161.35095"
       id="text16150"><tspan
         sodipodi:role="line"
         id="tspan16148"
         style="font-size:76.2px;stroke-width:0.264583"
         x="65.325882"
         y="161.35095">31</tspan></text>
  </g>
</svg>
