<?xml version="1.0" encoding="UTF-8" standalone="no"?>
<!-- Created with Inkscape (http://www.inkscape.org/) -->

<svg
   width="440px"
   height="440px"
   viewBox="0 0 440 440"
   version="1.1"
   id="svg5"
   inkscape:version="1.1 (c68e22c387, 2021-05-23)"
   sodipodi:docname="schedule.svg"
   xmlns:inkscape="http://www.inkscape.org/namespaces/inkscape"
   xmlns:sodipodi="http://sodipodi.sourceforge.net/DTD/sodipodi-0.dtd"
   xmlns="http://www.w3.org/2000/svg"
   xmlns:svg="http://www.w3.org/2000/svg">
  <sodipodi:namedview
     id="namedview7"
     pagecolor="#ffffff"
     bordercolor="#666666"
     borderopacity="1.0"
     inkscape:pageshadow="2"
     inkscape:pageopacity="0.0"
     inkscape:pagecheckerboard="true"
     inkscape:document-units="mm"
     showgrid="false"
     inkscape:snap-others="false"
     inkscape:snap-nodes="false"
     inkscape:zoom="0.74118967"
     inkscape:cx="479.63431"
     inkscape:cy="436.46048"
     inkscape:window-width="1920"
     inkscape:window-height="1017"
     inkscape:window-x="-8"
     inkscape:window-y="-8"
     inkscape:window-maximized="1"
     inkscape:current-layer="layer1" />
  <defs
     id="defs2">
    <linearGradient
       id="linearGradient3387"
       inkscape:swatch="solid">
      <stop
         style="stop-color:#999999;stop-opacity:1;"
         offset="0"
         id="stop3385" />
    </linearGradient>
    <filter
       inkscape:label="Opacity"
       style="color-interpolation-filters:sRGB;"
       id="filter1365"
       x="0"
       y="0"
       width="1"
       height="1">
      <feColorMatrix
         values="1 0 0 0 0 0 1 0 0 0 0 0 1 0 0 0 0 0 5 -1 "
         result="colormatrix"
         id="feColorMatrix1361" />
      <feComposite
         in2="colormatrix"
         operator="arithmetic"
         k2="0.407186"
         result="fbSourceGraphic"
         id="feComposite1363" />
      <feColorMatrix
         result="fbSourceGraphicAlpha"
         in="fbSourceGraphic"
         values="0 0 0 -1 0 0 0 0 -1 0 0 0 0 -1 0 0 0 0 1 0"
         id="feColorMatrix1385" />
      <feColorMatrix
         id="feColorMatrix1387"
         values="1 0 0 0 0 0 1 0 0 0 0 0 1 0 0 0 0 0 5 -1 "
         result="colormatrix"
         in="fbSourceGraphic" />
      <feComposite
         in2="colormatrix"
         id="feComposite1389"
         operator="arithmetic"
         k2="1"
         result="composite" />
    </filter>
  </defs>
  <g
     inkscape:label="Layer 1"
     inkscape:groupmode="layer"
     id="layer1">
    <g
       id="g6776"
       transform="translate(4.2836538,12.49399)">
      <path
         id="path5980"
         style="fill:#1a1a1a;fill-opacity:1;stroke-width:0.999999"
         d="M 383.16797,304.91602 A 219.91672,219.91672 0 0 0 163.25195,524.83203 219.91672,219.91672 0 0 0 383.16797,744.74805 219.91672,219.91672 0 0 0 603.08398,524.83203 219.91672,219.91672 0 0 0 383.16797,304.91602 Z m 0,16.18945 a 203.72653,203.72653 0 0 1 5.42383,0.0723 203.72653,203.72653 0 0 1 5.41797,0.2168 203.72653,203.72653 0 0 1 5.41211,0.35938 203.72653,203.72653 0 0 1 5.40039,0.50586 203.72653,203.72653 0 0 1 5.38476,0.64843 203.72653,203.72653 0 0 1 5.36524,0.79102 203.72653,203.72653 0 0 1 5.34375,0.93359 203.72653,203.72653 0 0 1 5.3164,1.07617 203.72653,203.72653 0 0 1 5.28516,1.2168 203.72653,203.72653 0 0 1 5.25195,1.35742 203.72653,203.72653 0 0 1 5.21289,1.4961 203.72653,203.72653 0 0 1 5.17188,1.63476 203.72653,203.72653 0 0 1 5.125,1.77149 203.72653,203.72653 0 0 1 5.07812,1.9082 203.72653,203.72653 0 0 1 5.02344,2.04297 203.72653,203.72653 0 0 1 4.96875,2.17383 203.72653,203.72653 0 0 1 4.91016,2.30664 203.72653,203.72653 0 0 1 4.8457,2.4375 203.72653,203.72653 0 0 1 4.77734,2.56445 203.72653,203.72653 0 0 1 4.70899,2.69141 203.72653,203.72653 0 0 1 4.63672,2.81445 203.72653,203.72653 0 0 1 4.55859,2.93945 203.72653,203.72653 0 0 1 4.48047,3.05664 203.72653,203.72653 0 0 1 4.39648,3.17774 203.72653,203.72653 0 0 1 4.31055,3.29101 203.72653,203.72653 0 0 1 4.2207,3.40625 203.72653,203.72653 0 0 1 4.12891,3.51758 203.72653,203.72653 0 0 1 4.0332,3.625 203.72653,203.72653 0 0 1 3.93555,3.73242 203.72653,203.72653 0 0 1 3.83594,3.83399 203.72653,203.72653 0 0 1 3.73242,3.9375 203.72653,203.72653 0 0 1 3.625,4.0332 203.72653,203.72653 0 0 1 3.51758,4.12891 203.72653,203.72653 0 0 1 3.40625,4.2207 203.72653,203.72653 0 0 1 3.29101,4.31055 203.72653,203.72653 0 0 1 3.17578,4.39648 203.72653,203.72653 0 0 1 3.0586,4.47852 203.72653,203.72653 0 0 1 2.9375,4.56054 203.72653,203.72653 0 0 1 2.8164,4.63477 203.72653,203.72653 0 0 1 2.69141,4.70898 203.72653,203.72653 0 0 1 2.56445,4.7793 203.72653,203.72653 0 0 1 2.43555,4.8457 203.72653,203.72653 0 0 1 2.30664,4.91016 203.72653,203.72653 0 0 1 2.17578,4.9668 203.72653,203.72653 0 0 1 2.04297,5.02539 203.72653,203.72653 0 0 1 1.90625,5.07812 203.72653,203.72653 0 0 1 1.77344,5.125 203.72653,203.72653 0 0 1 1.63476,5.17188 203.72653,203.72653 0 0 1 1.4961,5.21289 203.72653,203.72653 0 0 1 1.35742,5.25195 203.72653,203.72653 0 0 1 1.2168,5.28516 203.72653,203.72653 0 0 1 1.07617,5.3164 203.72653,203.72653 0 0 1 0.93359,5.3418 203.72653,203.72653 0 0 1 0.79102,5.36719 203.72653,203.72653 0 0 1 0.64843,5.38476 203.72653,203.72653 0 0 1 0.50391,5.40039 203.72653,203.72653 0 0 1 0.36133,5.41016 203.72653,203.72653 0 0 1 0.2168,5.41992 203.72653,203.72653 0 0 1 0.0723,5.42383 203.72653,203.72653 0 0 1 -0.62891,15.98438 203.72653,203.72653 0 0 1 -1.8789,15.88476 203.72653,203.72653 0 0 1 -3.1211,15.68945 203.72653,203.72653 0 0 1 -4.34179,15.39649 203.72653,203.72653 0 0 1 -5.53711,15.00781 203.72653,203.72653 0 0 1 -6.69727,14.52735 203.72653,203.72653 0 0 1 -7.8164,13.95703 203.72653,203.72653 0 0 1 -8.88672,13.30078 203.72653,203.72653 0 0 1 -9.9043,12.5625 203.72653,203.72653 0 0 1 -10.85742,11.74609 203.72653,203.72653 0 0 1 -11.74609,10.85742 203.72653,203.72653 0 0 1 -12.5625,9.9043 203.72653,203.72653 0 0 1 -13.30079,8.88672 203.72653,203.72653 0 0 1 -13.95703,7.81641 203.72653,203.72653 0 0 1 -14.52734,6.69726 203.72653,203.72653 0 0 1 -15.00781,5.53711 203.72653,203.72653 0 0 1 -15.39649,4.3418 203.72653,203.72653 0 0 1 -15.68945,3.12109 203.72653,203.72653 0 0 1 -15.88477,1.87891 203.72653,203.72653 0 0 1 -15.98437,0.6289 203.72653,203.72653 0 0 1 -15.98438,-0.6289 203.72653,203.72653 0 0 1 -15.88476,-1.87891 203.72653,203.72653 0 0 1 -15.68945,-3.12109 203.72653,203.72653 0 0 1 -15.39649,-4.3418 203.72653,203.72653 0 0 1 -15.00781,-5.53711 203.72653,203.72653 0 0 1 -14.52735,-6.69726 203.72653,203.72653 0 0 1 -13.95703,-7.81641 203.72653,203.72653 0 0 1 -13.30078,-8.88672 203.72653,203.72653 0 0 1 -12.5625,-9.9043 203.72653,203.72653 0 0 1 -11.74609,-10.85742 203.72653,203.72653 0 0 1 -10.85938,-11.74609 203.72653,203.72653 0 0 1 -9.90234,-12.5625 203.72653,203.72653 0 0 1 -8.88672,-13.30078 203.72653,203.72653 0 0 1 -7.81641,-13.95703 203.72653,203.72653 0 0 1 -6.69726,-14.52735 203.72653,203.72653 0 0 1 -5.53711,-15.00781 203.72653,203.72653 0 0 1 -4.3418,-15.39649 203.72653,203.72653 0 0 1 -3.12109,-15.68945 203.72653,203.72653 0 0 1 -1.88086,-15.88476 203.72653,203.72653 0 0 1 -0.62695,-15.98438 203.72653,203.72653 0 0 1 0.62695,-15.98437 203.72653,203.72653 0 0 1 1.88086,-15.88477 203.72653,203.72653 0 0 1 3.12109,-15.68945 203.72653,203.72653 0 0 1 4.3418,-15.39649 203.72653,203.72653 0 0 1 5.53711,-15.00781 203.72653,203.72653 0 0 1 6.69726,-14.52734 203.72653,203.72653 0 0 1 7.81641,-13.95703 203.72653,203.72653 0 0 1 8.88672,-13.30079 203.72653,203.72653 0 0 1 9.90234,-12.5625 203.72653,203.72653 0 0 1 10.85938,-11.74609 203.72653,203.72653 0 0 1 11.74609,-10.85742 203.72653,203.72653 0 0 1 12.5625,-9.9043 203.72653,203.72653 0 0 1 13.30078,-8.88672 203.72653,203.72653 0 0 1 13.95703,-7.8164 203.72653,203.72653 0 0 1 14.52735,-6.69727 203.72653,203.72653 0 0 1 15.00781,-5.53711 203.72653,203.72653 0 0 1 15.39649,-4.34179 203.72653,203.72653 0 0 1 15.68945,-3.1211 203.72653,203.72653 0 0 1 15.88476,-1.88086 203.72653,203.72653 0 0 1 15.98438,-0.62695 z"
         transform="scale(0.26458333)" />
      <circle
         style="fill:none;fill-opacity:1;stroke-width:0.264583;filter:url(#filter1365)"
         id="circle1002"
         cx="101.37981"
         cy="138.86177"
         r="58.186298" />
      <circle
         style="fill:#1a1a1a;fill-opacity:1;stroke-width:0.264583"
         id="path6107"
         cx="101.37981"
         cy="138.86177"
         r="3.9266827" />
      <rect
         style="fill:#1a1a1a;fill-opacity:1;stroke-width:0.208232"
         id="rect6211"
         width="3.2127404"
         height="29.628607"
         x="92.584236"
         y="-176.26256"
         transform="rotate(110.93268)" />
      <rect
         style="fill:#1a1a1a;fill-opacity:1;stroke-width:0.247231"
         id="rect6293"
         width="3.2127404"
         height="41.765629"
         x="99.95192"
         y="93.883415" />
    </g>
  </g>
</svg>
