<?xml version="1.0" encoding="UTF-8" standalone="no"?>
<svg
   xmlns:dc="http://purl.org/dc/elements/1.1/"
   xmlns:cc="http://creativecommons.org/ns#"
   xmlns:rdf="http://www.w3.org/1999/02/22-rdf-syntax-ns#"
   xmlns:svg="http://www.w3.org/2000/svg"
   xmlns="http://www.w3.org/2000/svg"
   width="50"
   height="50"
   viewBox="0 0 13.229166 13.229167"
   version="1.1"
   id="svg2716">
  <defs
     id="defs2710" />
  <metadata
     id="metadata2713">
    <rdf:RDF>
      <cc:Work
         rdf:about="">
        <dc:format>image/svg+xml</dc:format>
        <dc:type
           rdf:resource="http://purl.org/dc/dcmitype/StillImage" />
        <dc:title></dc:title>
      </cc:Work>
    </rdf:RDF>
  </metadata>
  <g
     id="layer1">
    <path
       id="path3281"
       style="fill:#000000;fill-opacity:1;stroke:#000000;stroke-width:0.999999px;stroke-linecap:butt;stroke-linejoin:miter;stroke-opacity:1"
       d="M 21.884766 5.2265625 C 20.179443 5.2802734 18.1875 5.75 16 7 L 28 7 C 28 7 25.636475 5.1083984 21.884766 5.2265625 z M 7 8 L 7 10 L 10 10 L 11 40 L 34 40 L 35 10 L 38 10 L 38 8 L 7 8 z M 12 10 L 33 10 L 32 38 L 13 38 L 12 10 z M 16 13 L 18 35 L 16 13 z M 22 13 L 22 35 L 22 13 z M 28 13 L 26 35 L 28 13 z "
       transform="scale(0.26458333)" />
  </g>
</svg>
